<svg width="28" height="28" viewBox="0 0 28 28" fill="none" xmlns="http://www.w3.org/2000/svg">
<g clip-path="url(#clip0_71_1232)">
<path d="M13.9997 25.6666C20.443 25.6666 25.6663 20.4433 25.6663 14C25.6663 7.55666 20.443 2.33331 13.9997 2.33331C7.55635 2.33331 2.33301 7.55666 2.33301 14C2.33301 20.4433 7.55635 25.6666 13.9997 25.6666Z" stroke="#FFC518" stroke-width="3" stroke-linecap="round" stroke-linejoin="round"/>
<path d="M13.9997 21C17.8657 21 20.9997 17.866 20.9997 14C20.9997 10.134 17.8657 6.99998 13.9997 6.99998C10.1337 6.99998 6.99968 10.134 6.99968 14C6.99968 17.866 10.1337 21 13.9997 21Z" stroke="#FFC518" stroke-width="3" stroke-linecap="round" stroke-linejoin="round"/>
<path d="M13.9997 16.3333C15.2883 16.3333 16.333 15.2886 16.333 14C16.333 12.7113 15.2883 11.6666 13.9997 11.6666C12.711 11.6666 11.6663 12.7113 11.6663 14C11.6663 15.2886 12.711 16.3333 13.9997 16.3333Z" stroke="#FFC518" stroke-width="3" stroke-linecap="round" stroke-linejoin="round"/>
</g>
<defs>
<clipPath id="clip0_71_1232">
<rect width="28" height="28" fill="white"/>
</clipPath>
</defs>
</svg>
