<svg width="106" height="106" viewBox="0 0 106 106" fill="none" xmlns="http://www.w3.org/2000/svg">
<path d="M92.75 44.1667C92.75 75.0834 53 101.583 53 101.583C53 101.583 13.25 75.0834 13.25 44.1667C13.25 33.6243 17.4379 23.5138 24.8925 16.0592C32.3471 8.60462 42.4576 4.41669 53 4.41669C63.5424 4.41669 73.6529 8.60462 81.1075 16.0592C88.5621 23.5138 92.75 33.6243 92.75 44.1667Z" stroke="#698B65" stroke-width="4" stroke-linecap="round" stroke-linejoin="round"/>
<path d="M53 57.4167C60.3178 57.4167 66.25 51.4845 66.25 44.1667C66.25 36.8489 60.3178 30.9167 53 30.9167C45.6822 30.9167 39.75 36.8489 39.75 44.1667C39.75 51.4845 45.6822 57.4167 53 57.4167Z" stroke="#698B65" stroke-width="4" stroke-linecap="round" stroke-linejoin="round"/>
</svg>
