<svg width="20" height="20" viewBox="0 0 20 20" fill="none" xmlns="http://www.w3.org/2000/svg">
<path d="M10 10C9.08337 10 8.29865 9.67362 7.64587 9.02084C6.9931 8.36807 6.66671 7.58334 6.66671 6.66668C6.66671 5.75001 6.9931 4.96529 7.64587 4.31251C8.29865 3.65973 9.08337 3.33334 10 3.33334C10.9167 3.33334 11.7014 3.65973 12.3542 4.31251C13.007 4.96529 13.3334 5.75001 13.3334 6.66668C13.3334 7.58334 13.007 8.36807 12.3542 9.02084C11.7014 9.67362 10.9167 10 10 10ZM3.33337 16.6667V14.3333C3.33337 13.8611 3.4549 13.4271 3.69796 13.0313C3.94101 12.6354 4.26393 12.3333 4.66671 12.125C5.52782 11.6945 6.40282 11.3715 7.29171 11.1563C8.1806 10.941 9.08337 10.8333 10 10.8333C10.9167 10.8333 11.8195 10.941 12.7084 11.1563C13.5973 11.3715 14.4723 11.6945 15.3334 12.125C15.7362 12.3333 16.0591 12.6354 16.3021 13.0313C16.5452 13.4271 16.6667 13.8611 16.6667 14.3333V16.6667H3.33337ZM5.00004 15H15V14.3333C15 14.1806 14.9618 14.0417 14.8855 13.9167C14.8091 13.7917 14.7084 13.6945 14.5834 13.625C13.8334 13.25 13.0764 12.9688 12.3125 12.7813C11.5487 12.5938 10.7778 12.5 10 12.5C9.22226 12.5 8.45143 12.5938 7.68754 12.7813C6.92365 12.9688 6.16671 13.25 5.41671 13.625C5.29171 13.6945 5.19101 13.7917 5.11462 13.9167C5.03824 14.0417 5.00004 14.1806 5.00004 14.3333V15ZM10 8.33334C10.4584 8.33334 10.8507 8.17015 11.1771 7.84376C11.5035 7.51737 11.6667 7.12501 11.6667 6.66668C11.6667 6.20834 11.5035 5.81598 11.1771 5.48959C10.8507 5.1632 10.4584 5.00001 10 5.00001C9.54171 5.00001 9.14935 5.1632 8.82296 5.48959C8.49657 5.81598 8.33337 6.20834 8.33337 6.66668C8.33337 7.12501 8.49657 7.51737 8.82296 7.84376C9.14935 8.17015 9.54171 8.33334 10 8.33334Z" fill="#FFC518"/>
</svg>
